<?xml version="1.0" encoding="iso-8859-1"?>
<!-- Generator: Adobe Illustrator 16.0.0, SVG Export Plug-In . SVG Version: 6.00 Build 0)  -->
<!DOCTYPE svg PUBLIC "-//W3C//DTD SVG 1.1//EN" "http://www.w3.org/Graphics/SVG/1.1/DTD/svg11.dtd">
<svg version="1.1" id="Capa_1" xmlns="http://www.w3.org/2000/svg" xmlns:xlink="http://www.w3.org/1999/xlink" x="0px" y="0px"
	 width="51.941px" height="51.941px" viewBox="0 0 51.941 51.941" style="enable-background:new 0 0 51.941 51.941;"
	 xml:space="preserve">
<g>
	<g>
		<path d="M3.625,21.143c0,5.194,2.099,9.746,5.255,12.328c0.445,0.365,0.892,1.085,0.989,1.651
			c1.541,9.013,8.079,15.781,15.911,15.781c7.408,0,13.654-6.057,15.613-14.338c0.133-0.559,0.633-1.231,1.114-1.548
			c3.649-2.411,6.15-7.319,6.15-12.991c0-8.055-5.041-14.585-11.258-14.585c-2.772,0-5.31,1.299-7.271,3.453
			c-0.388,0.424-1.118,0.665-1.682,0.551c-0.868-0.177-1.758-0.271-2.667-0.271c-0.504,0-1.003,0.028-1.496,0.084
			c-0.572,0.064-1.293-0.23-1.655-0.677c-2.018-2.488-4.74-4.023-7.746-4.023C8.666,6.557,3.625,13.087,3.625,21.143z
			 M37.075,10.642c5.077,0,9.193,5.333,9.193,11.91c0,6.576-4.116,11.909-9.193,11.909c-5.076,0-9.19-5.333-9.19-11.909
			C27.885,15.974,31.999,10.642,37.075,10.642z M29.845,40.165c0.653,2.411-0.476,4.814-2.521,5.368
			c-2.045,0.555-4.233-0.951-4.886-3.36c-0.653-2.411,0.476-4.815,2.521-5.368C27.004,36.25,29.191,37.755,29.845,40.165z
			 M14.948,33.205c-5.077,0-9.192-5.332-9.192-11.909c0-6.577,4.116-11.911,9.192-11.911s9.192,5.333,9.192,11.911
			C24.139,27.873,20.024,33.205,14.948,33.205z"/>
		<circle cx="18.123" cy="22.551" r="2.402"/>
		<circle cx="33.472" cy="22.551" r="2.402"/>
		<path d="M0.666,11.229c0.272,0.192,0.585,0.283,0.896,0.283c0.493,0,0.977-0.232,1.28-0.666c0.329-0.468,8.17-11.396,18.524-4.25
			c0.71,0.49,1.682,0.312,2.173-0.398c0.49-0.71,0.311-1.683-0.398-2.173C10.262-4.866,0.382,8.912,0.283,9.052
			C-0.213,9.758-0.041,10.733,0.666,11.229z"/>
		<path d="M30.575,6.596C40.88-0.519,48.76,10.365,49.1,10.848c0.304,0.433,0.789,0.664,1.28,0.664c0.31,0,0.623-0.091,0.896-0.283
			c0.706-0.496,0.877-1.47,0.382-2.176c-0.098-0.14-9.979-13.917-22.857-5.028c-0.711,0.491-0.889,1.463-0.397,2.173
			C28.891,6.907,29.864,7.086,30.575,6.596z"/>
	</g>
</g>
<g>
</g>
<g>
</g>
<g>
</g>
<g>
</g>
<g>
</g>
<g>
</g>
<g>
</g>
<g>
</g>
<g>
</g>
<g>
</g>
<g>
</g>
<g>
</g>
<g>
</g>
<g>
</g>
<g>
</g>
</svg>
