<?xml version="1.0" encoding="iso-8859-1"?>
<!-- Generator: Adobe Illustrator 16.0.0, SVG Export Plug-In . SVG Version: 6.00 Build 0)  -->
<!DOCTYPE svg PUBLIC "-//W3C//DTD SVG 1.1//EN" "http://www.w3.org/Graphics/SVG/1.1/DTD/svg11.dtd">
<svg version="1.1" id="Capa_1" xmlns="http://www.w3.org/2000/svg" xmlns:xlink="http://www.w3.org/1999/xlink" x="0px" y="0px"
	 width="516.375px" height="516.375px" viewBox="0 0 516.375 516.375" style="enable-background:new 0 0 516.375 516.375;"
	 xml:space="preserve">
<g>
	<path d="M459,191.25c-15.3,0-28.688,13.388-28.688,28.688v42.075v5.737h-19.125v-43.987v-137.7c0-15.3-11.475-28.688-28.688-28.688
		c-15.3,0-28.688,13.388-28.688,28.688v133.875v28.688h-19.125v-28.688V47.812c0-15.3-11.475-28.688-28.688-28.688
		c-15.3,0-28.688,13.388-28.688,28.688v170.212v49.725h-19.125v-47.812V86.062c0-15.3-11.475-28.688-28.688-28.688
		c-13.388,0-22.95,7.65-26.775,19.125H66.938l61.2-61.2L114.75,0L28.688,86.062l86.062,86.062l15.3-15.3l-63.112-61.2h133.875
		V283.05c-40.163-42.075-91.8-87.975-112.837-66.938c-21.038,21.038,32.512,78.413,107.1,204.638
		c34.425,57.375,76.5,95.625,149.175,95.625c78.412,0,143.438-65.025,143.438-143.438v-63.112v-89.888
		C487.688,204.638,476.213,191.25,459,191.25z"/>
</g>
<g>
</g>
<g>
</g>
<g>
</g>
<g>
</g>
<g>
</g>
<g>
</g>
<g>
</g>
<g>
</g>
<g>
</g>
<g>
</g>
<g>
</g>
<g>
</g>
<g>
</g>
<g>
</g>
<g>
</g>
</svg>
