<?xml version="1.0" encoding="iso-8859-1"?>
<!-- Generator: Adobe Illustrator 16.0.0, SVG Export Plug-In . SVG Version: 6.00 Build 0)  -->
<!DOCTYPE svg PUBLIC "-//W3C//DTD SVG 1.1//EN" "http://www.w3.org/Graphics/SVG/1.1/DTD/svg11.dtd">
<svg version="1.1" id="Capa_1" xmlns="http://www.w3.org/2000/svg" xmlns:xlink="http://www.w3.org/1999/xlink" x="0px" y="0px"
	 width="85.262px" height="85.262px" viewBox="0 0 85.262 85.262" style="enable-background:new 0 0 85.262 85.262;"
	 xml:space="preserve">
<g>
	<path style="fill:#010002;" d="M39.119,9.146c0.668,4.088-2.1,7.938-6.177,8.611c-4.093,0.668-7.943-2.1-8.611-6.177
		c-0.668-4.093,2.089-7.948,6.183-8.616C34.591,2.29,38.462,5.058,39.119,9.146z M36.781,38.855l6.634,10.6
		c0.932,1.48,2.889,1.968,4.408,1.077c1.518-0.901,2.046-2.838,1.202-4.381l-1.686-3.045c-1.46-2.602-2.887-5.217-4.34-7.824
		l-2.959-5.367c-0.339-0.622-0.668-1.315-1.028-2.053c-1.823-3.821-4.666-9.725-10.89-9.178c-5.326,0.456-10.729,2.99-16.057,7.508
		C5.757,31.166,1.35,38.39,1.166,38.695c-0.196,0.329-0.394,0.647-0.551,0.95c-0.013,0.01-0.023,0.021-0.034,0.031v0.005
		c-0.588,1.113-0.88,2.133-0.143,3.425c0.578,1.021,1.66,1.654,2.838,1.654c1.414,0,2.141-0.668,2.84-1.685l0,0
		c0.01-0.01,0.01-0.021,0.023-0.031c0.189-0.292,0.381-0.606,0.598-0.94c0.042-0.062,3.739-5.991,9.456-10.869
		c1.76-1.385,3.44-2.333,5.02-2.858l-1.279,15.431c-0.122,1.524-0.604,4.155-1.023,5.631L16.048,59.49
		c-0.375,1.269-1.458,3.376-2.302,4.406L6,73.502c-0.981,1.217-2.095,2.6-1.17,4.516c0.536,1.129,1.675,1.854,2.936,1.854
		c1.497,0,2.307-0.869,3.33-1.968l7.842-8.461c1.396-1.512,3.216-4.132,4.117-5.991l3.896-7.917l14.406,24.187
		c0.712,1.191,1.603,2.678,3.555,2.678l0,0c1.113,0,2.141-0.57,2.744-1.507c1.018-1.59,0.34-3.05-0.254-4.345L35.764,51.252
		c-0.46-0.989-0.717-3.009-0.525-4.096L36.781,38.855z M85.262,44.249c0-10.553-8.585-19.138-19.139-19.138h-8.13v9.667h8.13
		c5.225,0,9.471,4.246,9.471,9.471c0,5.222-4.246,9.478-9.471,9.478H64.43v-5.183L47.094,58.553l17.336,10.01v-5.184h1.891v-0.021
		C76.78,63.25,85.262,54.731,85.262,44.249z"/>
</g>
<g>
</g>
<g>
</g>
<g>
</g>
<g>
</g>
<g>
</g>
<g>
</g>
<g>
</g>
<g>
</g>
<g>
</g>
<g>
</g>
<g>
</g>
<g>
</g>
<g>
</g>
<g>
</g>
<g>
</g>
</svg>
