<?xml version="1.0" encoding="iso-8859-1"?>
<!-- Generator: Adobe Illustrator 16.0.0, SVG Export Plug-In . SVG Version: 6.00 Build 0)  -->
<!DOCTYPE svg PUBLIC "-//W3C//DTD SVG 1.1//EN" "http://www.w3.org/Graphics/SVG/1.1/DTD/svg11.dtd">
<svg version="1.1" id="Capa_1" xmlns="http://www.w3.org/2000/svg" xmlns:xlink="http://www.w3.org/1999/xlink" x="0px" y="0px"
	 width="79.536px" height="79.536px" viewBox="0 0 79.536 79.536" style="enable-background:new 0 0 79.536 79.536;"
	 xml:space="preserve">
<g>
	<path style="fill:#010002;" d="M65.327,71.856v-4.463H31.628l0,0H14.188v4.463L0,64.4l14.188-7.431v4.448h17.939l0,0h33.199V56.97
		l14.209,7.441L65.327,71.856z M42.947,12.065l2.134-2.742L42.958,7.68l-1.711,2.2l-0.011-0.016V9.88l-1.717-2.2l-2.1,1.644
		l2.131,2.747L11.183,52.341h19.884c7.106-6.188,10.31-14.066,10.31-14.066h0.111c0,0,3.107,7.588,10.015,14.061l17.46-0.051
		L42.947,12.065z"/>
</g>
<g>
</g>
<g>
</g>
<g>
</g>
<g>
</g>
<g>
</g>
<g>
</g>
<g>
</g>
<g>
</g>
<g>
</g>
<g>
</g>
<g>
</g>
<g>
</g>
<g>
</g>
<g>
</g>
<g>
</g>
</svg>
